# xmcd
#
# Track frame offsets: 
#        150
#        8618
#        27589
#        49219
#        67734
#        71482
#        85952
#        102425
#        121547
#        126677
#        141464
#        163771
#        186814
#
# Disc length: 2656 seconds
#
# Revision: 0
# Processed by: cddbd v1.5.2PL0 Copyright (c) Steve Scherf et al.
# Submitted via: ExactAudioCopyFreeDBPlugin 1.0
#
DISCID=b60a5e0d
DTITLE=米澤 円 - さえずりの夢、彩とり鳥のセカイ
DYEAR=2014
DGENRE=JPop
TTITLE0=再会- (instrumental)
TTITLE1=キミと世界エレジー
TTITLE2=あしたのしおり
TTITLE3=忘想花
TTITLE4=昨日- (instrumental)
TTITLE5=コロコロココロ
TTITLE6=擬態スマイル
TTITLE7=コスモダウト
TTITLE8=胸懐- (instrumental)
TTITLE9=煉獄スカーレット
TTITLE10=LINKS
TTITLE11=ハートフル・ドリーマー
TTITLE12=最初- (instrumental)
EXTD=
EXTT0=
EXTT1=
EXTT2=
EXTT3=
EXTT4=
EXTT5=
EXTT6=
EXTT7=
EXTT8=
EXTT9=
EXTT10=
EXTT11=
EXTT12=
PLAYORDER=
